<svg width="46" height="46" viewBox="0 0 46 46" fill="none" xmlns="http://www.w3.org/2000/svg">
<path d="M23 0C10.297 0 0 10.297 0 23C0 27.5754 1.33636 31.8389 3.63977 35.4211L0 46L10.5993 42.3738C14.1775 44.6692 18.4342 46 23 46C35.7029 46 46 35.7029 46 23C46 10.297 35.7029 0 23 0ZM35.6073 35.6072L29.8597 33.6308C27.883 34.9082 25.529 35.6509 23 35.6509C16.0131 35.6509 10.3503 29.9869 10.3503 23.0014C10.3503 16.0145 16.0145 10.3517 23 10.3517C29.9855 10.3517 35.6496 16.0159 35.6496 23.0014C35.6496 25.5249 34.9096 27.8762 33.6362 29.8501L35.6073 35.6072Z" fill="#61F1A3"/>
</svg>
